<?xml version="1.0" encoding="UTF-8"?>
<svg version="1.1" xmlns="http://www.w3.org/2000/svg" width="1080" height="1080">
<path d="M0 0 C2.81835284 2.80161452 5.57774522 5.56700921 8.09375 8.64453125 C8.64264893 9.31339355 9.19154785 9.98225586 9.75708008 10.67138672 C10.61982544 11.73123779 10.61982544 11.73123779 11.5 12.8125 C12.412052 13.9264917 12.412052 13.9264917 13.3425293 15.06298828 C15.2317093 17.37261039 17.11657447 19.68568369 19 22 C19.58475098 22.71816895 20.16950195 23.43633789 20.77197266 24.17626953 C23.53459505 27.57079758 26.29394398 30.9679599 29.05078125 34.3671875 C31.52579403 37.41809697 34.01004862 40.46126153 36.5 43.5 C42.92765227 51.34689665 49.3135849 59.22777362 55.70703125 67.10253906 C63.58956541 76.81263613 63.58956541 76.81263613 71.5 86.5 C73.00014989 88.33321069 74.50013456 90.16655658 76 92 C76.48968262 92.59780273 76.97936523 93.19560547 77.48388672 93.81152344 C78.57181434 95.14058795 79.65836203 96.470783 80.74365234 97.80200195 C81.87570028 99.18744719 83.01278413 100.56879234 84.15478516 101.94604492 C86.70584705 105.04712665 89.13826482 108.1056445 91.24609375 111.52734375 C98.20483088 122.26550509 107.76822734 125.7030751 119.16455078 130.70019531 C152.96833398 146.196264 186.15846742 173.69638242 210 202 C210.45648926 202.53737793 210.91297852 203.07475586 211.38330078 203.62841797 C250.63274273 250.03237924 277.67363394 312.30460213 278.23828125 373.625 C278.24821106 374.51634644 278.25814087 375.40769287 278.26837158 376.3260498 C278.46700022 398.87796471 277.52559377 420.71455895 274 443 C273.78506897 444.37620514 273.78506897 444.37620514 273.5657959 445.7802124 C268.98831721 475.03113703 263.57150021 504.09522181 257.54272461 533.08081055 C257.31395126 534.19215363 257.08517792 535.3034967 256.84947205 536.44851685 C256.4260088 538.50300127 255.99691108 540.55633749 255.56056213 542.60812378 C253.7057999 551.63043434 251.9256821 560.95045345 254.3125 570 C254.57675781 571.051875 254.84101562 572.10375 255.11328125 573.1875 C255.87659321 575.94907819 255.87659321 575.94907819 257.16796875 578.0625 C258.35346875 580.82310094 257.92858843 582.15053343 257 585 C254.83862305 587.33105469 254.83862305 587.33105469 251.82421875 589.921875 C245.43578428 595.5715086 239.39659321 601.52110949 233.39453125 607.578125 C232.44723348 608.53159335 231.49979405 609.48492097 230.55221558 610.43811035 C226.63262608 614.38302459 222.7185879 618.33341519 218.80834961 622.28759766 C216.8531739 624.26431144 214.89539389 626.23837748 212.93473816 628.20965576 C211.10195156 630.05279606 209.27329042 631.90004963 207.44917297 633.75177002 C206.22100105 634.98501007 206.22100105 634.98501007 204.96801758 636.24316406 C204.24777908 636.97085999 203.52754059 637.69855591 202.78547668 638.44830322 C201 640 201 640 199 640 C198.60494263 640.88510254 198.60494263 640.88510254 198.2019043 641.78808594 C196.94798348 644.09572815 195.64804739 645.56727394 193.76953125 647.390625 C193.13499023 648.01356445 192.50044922 648.63650391 191.84667969 649.27832031 C191.17540039 649.92897461 190.50412109 650.57962891 189.8125 651.25 C185.26934162 655.7162643 180.84432524 660.17425358 176.734375 665.046875 C173.9800462 668.14859663 170.99745599 671.02265759 168.04589844 673.93457031 C165.41910667 676.53969782 162.89976978 679.18488545 160.5 682 C157.65877199 685.33297901 154.61578377 688.42608801 151.5 691.5 C148.40508498 694.55337951 145.38065723 697.62323685 142.5625 700.9375 C139.06289503 705.04426535 135.24017991 708.78724806 131.40478516 712.57568359 C128.04955443 715.90566329 124.90282125 719.33922489 121.83984375 722.94140625 C119.0450884 726.06844674 116.03972167 728.98109593 113.05541992 731.92504883 C109.74911293 735.20396967 106.65750786 738.60052348 103.63671875 742.140625 C100.90728152 745.24136992 97.95999337 748.12097909 95 751 C90.82122072 749.43783952 88.48514228 746.35598224 85.75 743 C85.26257324 742.41259033 84.77514648 741.82518066 84.27294922 741.2199707 C80.8714199 737.10713113 77.52380465 732.95096248 74.20703125 728.76953125 C71.43126687 725.28631542 68.62308435 721.83014172 65.8125 718.375 C65.2570752 717.69203857 64.70165039 717.00907715 64.12939453 716.30541992 C62.98822213 714.90242221 61.8469451 713.49950959 60.70556641 712.09667969 C57.96883521 708.73237286 55.2345045 705.36611672 52.5 702 C51.41667893 700.6666567 50.33334558 699.33332338 49.25 698 C33 678 33 678 16.75 658 C15.9453833 657.0097583 15.9453833 657.0097583 15.12451172 655.99951172 C14.04265888 654.66792549 12.96095282 653.33622 11.87939453 652.00439453 C9.14960892 648.64333059 6.41719783 645.28446381 3.6796875 641.9296875 C-1.89049759 635.09832843 -7.4114155 628.23583803 -12.83642578 621.28857422 C-16.33793972 616.81519085 -19.90825692 612.40114997 -23.5 608 C-28.00397305 602.4810471 -32.44238147 596.91794348 -36.82495117 591.30224609 C-40.94672784 586.03482381 -45.16527925 580.84826635 -49.41015625 575.6796875 C-50.95171791 573.79555658 -52.47600454 571.8983525 -54 570 C-54.57927246 569.30229492 -55.15854492 568.60458984 -55.75537109 567.88574219 C-56.31434082 567.18868164 -56.87331055 566.49162109 -57.44921875 565.7734375 C-57.96186279 565.14614746 -58.47450684 564.51885742 -59.00268555 563.87255859 C-60 562 -60 562 -59.81469727 559.9699707 C-58.94468699 557.86625093 -57.98185899 556.44462717 -56.515625 554.70703125 C-55.99959717 554.08610596 -55.48356934 553.46518066 -54.9519043 552.82543945 C-54.10946167 551.82903442 -54.10946167 551.82903442 -53.25 550.8125 C-52.05137438 549.36624768 -50.85481857 547.91827788 -49.66015625 546.46875 C-49.0480127 545.72625 -48.43586914 544.98375 -47.80517578 544.21875 C-45.02726412 540.80440578 -42.3504035 537.31688932 -39.6875 533.8125 C-39.15922607 533.11729248 -38.63095215 532.42208496 -38.08666992 531.70581055 C-36.97803926 530.24495095 -35.8700639 528.78359386 -34.76269531 527.32177734 C-32.88725936 524.85150091 -31.00309689 522.38806996 -29.1171875 519.92578125 C-11.56415235 496.99242396 5.43326539 473.65508491 22 450 C22.63373535 449.09523926 23.2674707 448.19047852 23.92041016 447.25830078 C32.0822614 435.59376105 40.1968037 423.90791183 48 412 C48.68368652 410.95682617 49.36737305 409.91365234 50.07177734 408.83886719 C55.05580351 401.23110024 60.03035985 393.61717223 65 386 C53.45637797 386.70743129 42.03947059 388.41880336 30.59375 390.01953125 C29.527509 390.16807745 28.46126801 390.31662365 27.36271667 390.46967125 C21.72678855 391.2550409 16.09143832 392.04441378 10.45654297 392.8371582 C4.66835104 393.65067616 -1.12164823 394.45048569 -6.91217804 395.24716663 C-11.39678089 395.86672037 -15.87991339 396.49645076 -20.36271667 397.12888145 C-22.49582008 397.42804747 -24.62945307 397.72346444 -26.7636261 398.01490211 C-46.16165789 400.67018484 -61.99197601 403.49420154 -74.625 419.8125 C-75.99828438 421.62323313 -77.35856366 423.44264628 -78.7109375 425.26904297 C-92.34425592 443.57590426 -109.87053545 457.37123607 -133 461 C-155.93820685 462.81979119 -178.69642199 459.55790678 -197.375 445.1875 C-198.94078159 443.81877256 -200.48184004 442.42136453 -202 441 C-202.91265625 440.17757813 -203.8253125 439.35515625 -204.765625 438.5078125 C-216.60815691 427.34477012 -227.43283419 410.60291515 -228.3359375 393.8359375 C-228.79516847 371.6891538 -218.76440147 357.16127319 -205.98046875 340.0390625 C-202.58037906 335.46672527 -199.32043627 330.7992175 -196.0625 326.125 C-195.47001465 325.27542725 -194.8775293 324.42585449 -194.26708984 323.55053711 C-193.0820415 321.85101779 -191.8971441 320.15139321 -190.71240234 318.45166016 C-188.11266786 314.72959946 -185.49533588 311.02007456 -182.875 307.3125 C-182.38781494 306.6230127 -181.90062988 305.93352539 -181.39868164 305.22314453 C-180.42182597 303.84090269 -179.44485714 302.45874081 -178.46777344 301.07666016 C-175.97679014 297.55232484 -173.48855097 294.02605299 -171 290.5 C-170.00001278 289.08332432 -169.00001278 287.66665764 -168 286.25 C-167.505 285.54875 -167.01 284.8475 -166.5 284.125 C-157 270.66666667 -147.5 257.20833333 -138 243.75 C-137.50491943 243.0485083 -137.00983887 242.3470166 -136.49975586 241.62426758 C-135.50105536 240.20969928 -134.50187015 238.79547307 -133.50219727 237.3815918 C-130.97820112 233.8104889 -128.46327915 230.23357265 -125.96484375 226.64453125 C-117.15107167 214.0094233 -108.02682771 201.90621035 -97.4765625 190.6640625 C-95.4540171 188.48839063 -93.52831736 186.27835527 -91.625 184 C-76.98007347 167.19833844 -57.51693701 153.15867641 -38.58534241 141.59761047 C-37.32997755 140.81467469 -36.08859346 140.00857014 -34.8669281 139.17402649 C-30.48956803 136.25363669 -26.30504633 134.35761692 -21.32836914 132.63378906 C-13.05821886 129.24431444 -5.31758969 125.2034973 -1 117 C4.21147919 100.28811063 2.01193115 80.90751877 1.39010882 63.59380805 C1.14619814 56.65138031 1.06031596 49.70951509 0.98549497 42.76353335 C0.82845448 28.50341493 0.47966563 14.25274004 0 0 Z M-59 232 C-61.97071332 235.82288909 -64.83091565 239.6618313 -67 244 C-66.67 244.99 -66.34 245.98 -66 247 C-56.56572576 248.93523574 -46.97558096 248.92997736 -38.68359375 243.4765625 C-29.22500274 235.67939356 -22.11807403 224.01891232 -17 213 C-17 212.34 -17 211.68 -17 211 C-32.98299441 210.19228359 -48.54611406 220.80677674 -59 232 Z " fill="#568039" transform="translate(393,103)"/>
<path d="M0 0 C24.75 0 49.5 0 75 0 C73.39273353 3.21453294 72.62096151 4.62221455 70.20703125 6.953125 C69.66272461 7.48583008 69.11841797 8.01853516 68.55761719 8.56738281 C67.98172852 9.12264648 67.40583984 9.67791016 66.8125 10.25 C62.57796967 14.40127359 58.51134776 18.58563977 54.671875 23.109375 C51.98857156 26.14376487 49.07003379 28.93766937 46.1875 31.78125 C44.20279658 33.79430632 42.33903084 35.85446403 40.5 38 C37.24835372 41.79358733 33.74286906 45.27392647 30.1875 48.78125 C28.20279658 50.79430632 26.33903084 52.85446403 24.5 55 C21.24835372 58.79358733 17.74286906 62.27392647 14.1875 65.78125 C12.20279658 67.79430632 10.33903084 69.85446403 8.5 72 C5.24835372 75.79358733 1.74286906 79.27392647 -1.8125 82.78125 C-3.79720342 84.79430632 -5.66096916 86.85446403 -7.5 89 C-10.75164628 92.79358733 -14.25713094 96.27392647 -17.8125 99.78125 C-19.79720342 101.79430632 -21.66096916 103.85446403 -23.5 106 C-26.75164628 109.79358733 -30.25713094 113.27392647 -33.8125 116.78125 C-35.79720342 118.79430632 -37.66096916 120.85446403 -39.5 123 C-42.75164628 126.79358733 -46.25713094 130.27392647 -49.8125 133.78125 C-51.79720342 135.79430632 -53.66096916 137.85446403 -55.5 140 C-58.75164628 143.79358733 -62.25713094 147.27392647 -65.8125 150.78125 C-67.79720342 152.79430632 -69.66096916 154.85446403 -71.5 157 C-74.75164628 160.79358733 -78.25713094 164.27392647 -81.8125 167.78125 C-83.79720342 169.79430632 -85.66096916 171.85446403 -87.5 174 C-90.75164628 177.79358733 -94.25713094 181.27392647 -97.8125 184.78125 C-99.79720342 186.79430632 -101.66096916 188.85446403 -103.5 191 C-106.75164628 194.79358733 -110.25713094 198.27392647 -113.8125 201.78125 C-115.79720342 203.79430632 -117.66096916 205.85446403 -119.5 208 C-122.75164628 211.79358733 -126.25713094 215.27392647 -129.8125 218.78125 C-131.79720342 220.79430632 -133.66096916 222.85446403 -135.5 225 C-138.75164628 228.79358733 -142.25713094 232.27392647 -145.8125 235.78125 C-147.79720342 237.79430632 -149.66096916 239.85446403 -151.5 242 C-154.75164628 245.79358733 -158.25713094 249.27392647 -161.8125 252.78125 C-163.79720342 254.79430632 -165.66096916 256.85446403 -167.5 259 C-170.75164628 262.79358733 -174.25713094 266.27392647 -177.8125 269.78125 C-179.79720342 271.79430632 -181.66096916 273.85446403 -183.5 276 C-186.75164628 279.79358733 -190.25713094 283.27392647 -193.8125 286.78125 C-195.79720342 288.79430632 -197.66096916 290.85446403 -199.5 293 C-202.75164628 296.79358733 -206.25713094 300.27392647 -209.8125 303.78125 C-211.79720342 305.79430632 -213.66096916 307.85446403 -215.5 310 C-218.04691608 312.97140209 -220.71378859 315.7514401 -223.5 318.5 C-226.26560408 321.22829407 -228.91287031 323.98516834 -231.4375 326.9375 C-234.9446944 331.03058303 -238.75725158 334.77224704 -242.58984375 338.55859375 C-245.26854532 341.27202727 -247.74608118 344.10777023 -250.22265625 347.00390625 C-252.94977223 350.06666727 -255.89404637 352.90223493 -258.8125 355.78125 C-260.79720342 357.79430632 -262.66096916 359.85446403 -264.5 362 C-267.75164628 365.79358733 -271.25713094 369.27392647 -274.8125 372.78125 C-276.79720342 374.79430632 -278.66096916 376.85446403 -280.5 379 C-283.75164628 382.79358733 -287.25713094 386.27392647 -290.8125 389.78125 C-292.79720342 391.79430632 -294.66096916 393.85446403 -296.5 396 C-299.75044651 399.79218759 -303.25449569 403.27135531 -306.80859375 406.77734375 C-309.42101068 409.4270144 -311.83302621 412.21172803 -314.25390625 415.03515625 C-316.72603418 417.81699148 -319.38430547 420.39375951 -322.03515625 423.00390625 C-323.92230744 424.92107177 -325.68685375 426.89575322 -327.4375 428.9375 C-330.00665271 431.92801716 -332.69317256 434.73116684 -335.5 437.5 C-338.28621141 440.2485599 -340.95308392 443.02859791 -343.5 446 C-346.75164628 449.79358733 -350.25713094 453.27392647 -353.8125 456.78125 C-355.79720342 458.79430632 -357.66096916 460.85446403 -359.5 463 C-362.75164628 466.79358733 -366.25713094 470.27392647 -369.8125 473.78125 C-371.79720342 475.79430632 -373.66096916 477.85446403 -375.5 480 C-378.75164628 483.79358733 -382.25713094 487.27392647 -385.8125 490.78125 C-387.79720342 492.79430632 -389.66096916 494.85446403 -391.5 497 C-394.75164628 500.79358733 -398.25713094 504.27392647 -401.8125 507.78125 C-404.40069453 510.40641873 -406.7861004 513.16684107 -409.18359375 515.96484375 C-411.93639771 519.04916819 -414.90137781 521.91043428 -417.84375 524.8125 C-420.73485869 527.74550881 -423.37085709 530.83154573 -426 534 C-429.56531875 531.31048254 -432.35752512 528.5613038 -435.125 525.0625 C-435.90101563 524.09441406 -436.67703125 523.12632812 -437.4765625 522.12890625 C-437.88551758 521.61859863 -438.29447266 521.10829102 -438.71582031 520.58251953 C-440.9326474 517.85068052 -443.21850527 515.17784431 -445.5 512.5 C-448.85496935 508.55393079 -452.17223129 504.58356328 -455.4375 500.5625 C-458.89274151 496.31607618 -462.42697834 492.14703706 -466 488 C-470.31928956 482.98680512 -474.55097119 477.9146268 -478.72265625 472.77734375 C-481.28204054 469.65603633 -483.88593791 466.5754997 -486.5 463.5 C-490.62107792 458.65045949 -494.66991483 453.74839036 -498.6875 448.8125 C-501.26146392 445.68200334 -503.87569086 442.58827539 -506.5 439.5 C-510.62101634 434.65040619 -514.66991354 429.74839194 -518.6875 424.8125 C-521.7243277 421.1190609 -524.81960955 417.47701514 -527.91625977 413.83374023 C-530.7954532 410.44045891 -533.63204237 407.01732214 -536.4375 403.5625 C-539.89274151 399.31607618 -543.42697834 395.14703706 -547 391 C-551.31928956 385.98680512 -555.55097119 380.9146268 -559.72265625 375.77734375 C-562.28204054 372.65603633 -564.88593791 369.5754997 -567.5 366.5 C-571.62107792 361.65045949 -575.66991483 356.74839036 -579.6875 351.8125 C-582.26146392 348.68200334 -584.87569086 345.58827539 -587.5 342.5 C-591.6174661 337.65458409 -595.6640586 332.75784535 -599.67578125 327.82421875 C-601.8382991 325.19648697 -604.0304162 322.59883871 -606.24194336 320.01245117 C-607.65976176 318.34511972 -609.05631817 316.66149989 -610.453125 314.9765625 C-612.84679677 312.06963535 -612.84679677 312.06963535 -615.171875 309.9609375 C-617.16102697 307.96298397 -618.16863544 306.70421879 -619 304 C-618.5189305 298.38318857 -616.83281113 293.30605157 -615 288 C-614.63285889 286.8867334 -614.63285889 286.8867334 -614.25830078 285.75097656 C-611.05150352 276.08284605 -607.13553989 266.78227222 -602.8125 257.5625 C-602.39661621 256.66829346 -601.98073242 255.77408691 -601.55224609 254.8527832 C-599.50417591 250.5956001 -597.71733349 247.06786833 -594 244 C-588.49631914 249.89777159 -583.37654176 255.96887427 -578.43579102 262.33691406 C-574.74444472 267.08320195 -570.95736163 271.74198809 -567.125 276.375 C-560.91148292 283.88886295 -554.74902504 291.44221813 -548.60888672 299.01611328 C-545.90837253 302.34606447 -543.20398205 305.6728647 -540.5 309 C-539.41664829 310.3333184 -538.33331495 311.66665173 -537.25 313 C-536.71375 313.66 -536.1775 314.32 -535.625 315 C-517.74999999 337.00000001 -517.74999999 337.00000001 -516.12402344 339.0012207 C-515.04396984 340.33050495 -513.96389183 341.65976937 -512.88378906 342.98901367 C-510.12507227 346.38413329 -507.36681991 349.77962852 -504.609375 353.17578125 C-499.91456241 358.95735602 -495.21944093 364.73849273 -490.5 370.5 C-485.21049332 376.9574452 -479.95097339 383.43918576 -474.68945312 389.91943359 C-471.96041309 393.28025428 -469.23015975 396.6400889 -466.5 400 C-465.41666054 401.33332835 -464.33332721 402.66666169 -463.25 404 C-462.71375 404.66 -462.1775 405.32 -461.625 406 C-460 408 -458.375 410 -456.75 412 C-456.2132666 412.66056396 -455.6765332 413.32112793 -455.12353516 414.00170898 C-454.04496197 415.32924605 -452.96651058 416.65688208 -451.88818359 417.98461914 C-449.10803268 421.40747503 -446.3255065 424.82835825 -443.5390625 428.24609375 C-437.94957717 435.10595268 -432.37220984 441.96728893 -427 449 C-423.99156062 447.66373113 -422.03561654 446.23679856 -419.828125 443.8046875 C-418.96102905 442.8602478 -418.96102905 442.8602478 -418.07641602 441.89672852 C-417.47369873 441.22955811 -416.87098145 440.5623877 -416.25 439.875 C-414.99460211 438.50548976 -413.73810007 437.1369908 -412.48046875 435.76953125 C-411.57820557 434.78654053 -411.57820557 434.78654053 -410.65771484 433.78369141 C-408.67874427 431.65433072 -406.63821257 429.59743236 -404.5625 427.5625 C-402.14923433 425.18996455 -399.88731957 422.75912006 -397.6875 420.1875 C-394.77749549 416.79804395 -391.67840058 413.63548547 -388.5 410.5 C-385.38420131 407.42610145 -382.34122722 404.33297809 -379.5 401 C-376.2169922 397.14877931 -372.64595488 393.6171114 -369.046875 390.06640625 C-366.41976442 387.46094768 -363.90006916 384.81546575 -361.5 382 C-358.65877199 378.66702099 -355.61578377 375.57391199 -352.5 372.5 C-349.40508498 369.44662049 -346.38065723 366.37676315 -343.5625 363.0625 C-340.06289503 358.95573465 -336.24017991 355.21275194 -332.40478516 351.42431641 C-329.04955443 348.09433671 -325.90282125 344.66077511 -322.83984375 341.05859375 C-320.04233133 337.92846838 -317.03375494 335.01314342 -314.04663086 332.06616211 C-311.41959998 329.4607863 -308.89999432 326.81537795 -306.5 324 C-303.2169922 320.14877931 -299.64595488 316.6171114 -296.046875 313.06640625 C-293.41976442 310.46094768 -290.90006916 307.81546575 -288.5 305 C-285.2169922 301.14877931 -281.64595488 297.6171114 -278.046875 294.06640625 C-275.41976442 291.46094768 -272.90006916 288.81546575 -270.5 286 C-267.2169922 282.14877931 -263.64595488 278.6171114 -260.046875 275.06640625 C-257.41976442 272.46094768 -254.90006916 269.81546575 -252.5 267 C-249.2169922 263.14877931 -245.64595488 259.6171114 -242.046875 256.06640625 C-239.41976442 253.46094768 -236.90006916 250.81546575 -234.5 248 C-231.65877199 244.66702099 -228.61578377 241.57391199 -225.5 238.5 C-222.40508498 235.44662049 -219.38065723 232.37676315 -216.5625 229.0625 C-213.06289503 224.95573465 -209.24017991 221.21275194 -205.40478516 217.42431641 C-202.04955443 214.09433671 -198.90282125 210.66077511 -195.83984375 207.05859375 C-193.04233133 203.92846838 -190.03375494 201.01314342 -187.04663086 198.06616211 C-184.41959998 195.4607863 -181.89999432 192.81537795 -179.5 190 C-176.2169922 186.14877931 -172.64595488 182.6171114 -169.046875 179.06640625 C-166.41976442 176.46094768 -163.90006916 173.81546575 -161.5 171 C-158.2169922 167.14877931 -154.64595488 163.6171114 -151.046875 160.06640625 C-148.41976442 157.46094768 -145.90006916 154.81546575 -143.5 152 C-140.2169922 148.14877931 -136.64595488 144.6171114 -133.046875 141.06640625 C-130.41976442 138.46094768 -127.90006916 135.81546575 -125.5 133 C-122.65877199 129.66702099 -119.61578377 126.57391199 -116.5 123.5 C-113.40508498 120.44662049 -110.38065723 117.37676315 -107.5625 114.0625 C-104.06289503 109.95573465 -100.24017991 106.21275194 -96.40478516 102.42431641 C-93.04955443 99.09433671 -89.90282125 95.66077511 -86.83984375 92.05859375 C-84.04233133 88.92846838 -81.03375494 86.01314342 -78.04663086 83.06616211 C-75.41959998 80.4607863 -72.89999432 77.81537795 -70.5 75 C-67.2169922 71.14877931 -63.64595488 67.6171114 -60.046875 64.06640625 C-57.41976442 61.46094768 -54.90006916 58.81546575 -52.5 56 C-49.2169922 52.14877931 -45.64595488 48.6171114 -42.046875 45.06640625 C-39.41976442 42.46094768 -36.90006916 39.81546575 -34.5 37 C-31.65877199 33.66702099 -28.61578377 30.57391199 -25.5 27.5 C-22.40508498 24.44662049 -19.38065723 21.37676315 -16.5625 18.0625 C-12.94821392 13.81195818 -8.98583442 9.93197777 -4.99829102 6.03540039 C-2.13901884 3.29387489 -2.13901884 3.29387489 0 0 Z " fill="#568039" transform="translate(913,443)"/>
<path d="M0 0 C5.70510418 29.64559539 11.37507616 59.29779044 16.88258171 88.98081779 C17.89912743 94.4586287 18.92123088 99.93529169 19.95483398 105.40991211 C20.98179162 110.85008282 21.99598474 116.29248552 23.00092506 121.73676491 C23.38035739 123.78018492 23.76432384 125.82276869 24.15302086 127.86444664 C24.68682994 130.67273062 25.20418218 133.48356908 25.7175293 136.2956543 C25.95957596 137.53788254 25.95957596 137.53788254 26.20651245 138.8052063 C27.2007491 144.38940806 27.2007491 144.38940806 26.21150208 147.39826965 C21.41480974 153.73999026 15.08225008 159.13463512 8.97265625 164.1875 C6.88602785 166.01291572 6.88602785 166.01291572 4.99609375 168.5 C2.78600225 171.17001846 0.89464506 173.08684284 -2 175 C-4.85467529 175.06800842 -4.85467529 175.06800842 -8.08886719 174.46118164 C-9.33051636 174.24172882 -10.57216553 174.022276 -11.85144043 173.7961731 C-12.52196945 173.66696095 -13.19249847 173.53774879 -13.88334656 173.40462112 C-16.06525712 172.9875254 -18.25097195 172.60508264 -20.44055176 172.23043823 C-25.45006884 171.36883487 -30.45155506 170.46502485 -35.453125 169.55859375 C-37.28918078 169.22741034 -39.12526116 168.89636321 -40.96136475 168.56544495 C-44.77712315 167.87711092 -48.59253612 167.18690082 -52.40771484 166.49536133 C-57.3029545 165.60824596 -62.19911156 164.72631063 -67.09553909 163.84577847 C-70.87218634 163.16597319 -74.64830836 162.48328692 -78.42427826 161.7997303 C-80.2310775 161.47304699 -82.03804846 161.14731193 -83.84519196 160.82253838 C-86.35600066 160.37090067 -88.866068 159.91534991 -91.37597656 159.45874023 C-92.12290268 159.32521652 -92.8698288 159.19169281 -93.63938904 159.05412292 C-98.77152425 158.11423787 -98.77152425 158.11423787 -101 157 C-100.98428955 155.84290527 -100.9685791 154.68581055 -100.95239258 153.49365234 C-100.24075122 123.08079096 -100.24075122 123.08079096 -104 93 C-104.20399414 92.00838867 -104.40798828 91.01677734 -104.61816406 89.99511719 C-107.32663339 77.11510366 -110.82315475 64.80356181 -115.6796875 52.5703125 C-117 49 -117 49 -117 46 C-99.83958692 38.83673567 -82.63095889 31.80676892 -65.35450745 24.92822266 C-64.6045903 24.62964355 -63.85467316 24.33106445 -63.08203125 24.0234375 C-62.31410751 23.71776855 -61.54618378 23.41209961 -60.75498962 23.09716797 C-54.90341596 20.76533427 -49.0595995 18.41460052 -43.21794128 16.05804443 C-38.62070289 14.20386195 -34.02187004 12.35365191 -29.42294312 10.50366211 C-27.14620469 9.58665797 -24.87017867 8.66788303 -22.59487915 7.74731445 C-19.39846697 6.45441923 -16.1995394 5.16794539 -13 3.8828125 C-12.03289597 3.48977936 -11.06579193 3.09674622 -10.06938171 2.69180298 C-9.18023575 2.33605194 -8.29108978 1.9803009 -7.375 1.61376953 C-6.59898437 1.30069855 -5.82296875 0.98762756 -5.0234375 0.66506958 C-3 0 -3 0 0 0 Z " fill="#568039" transform="translate(807,343)"/>
<path d="M0 0 C3.04886748 1.35127333 5.03099706 2.82633499 7.28515625 5.2734375 C8.19624146 6.25413208 8.19624146 6.25413208 9.12573242 7.25463867 C9.76486572 7.95435791 10.40399902 8.65407715 11.0625 9.375 C11.72934814 10.09598877 12.39619629 10.81697754 13.08325195 11.55981445 C15.06133926 13.70125839 17.03156655 15.84968371 19 18 C20.00235705 19.09007104 21.00493512 20.17993891 22.0078125 21.26953125 C23.78377439 23.20341395 25.55724498 25.1395877 27.328125 27.078125 C30.18877655 30.20643985 33.0610975 33.3236772 35.9375 36.4375 C36.43660889 36.97785889 36.93571777 37.51821777 37.44995117 38.07495117 C38.46120612 39.16964892 39.47251812 40.26429396 40.48388672 41.35888672 C42.99014104 44.07177586 45.49500446 46.78594859 48 49.5 C48.99999324 50.58333957 49.99999324 51.66667291 51 52.75 C57 59.25 57 59.25 58.49951172 60.87451172 C59.50108526 61.95952256 60.502713 63.04448338 61.50439453 64.12939453 C63.98076272 66.81165757 66.45623064 69.49473934 68.9296875 72.1796875 C74.28712413 77.99300041 79.66351874 83.78773321 85.0625 89.5625 C90.1673414 95.02342843 95.23804645 100.513392 100.28125 106.03125 C103.21638029 109.24101236 106.17111539 112.43250726 109.125 115.625 C114.13245181 121.0398844 119.08462376 126.50123315 124 132 C121.3488264 135.26014527 117.93030764 136.4624649 114.125 137.94140625 C113.4252002 138.22102203 112.72540039 138.50063782 112.00439453 138.78872681 C110.4775179 139.39820784 108.94929761 140.00433085 107.41992188 140.60751343 C103.23148754 142.26041743 99.05374574 143.93997379 94.875 145.6171875 C93.99344238 145.97038559 93.11188477 146.32358368 92.20361328 146.68748474 C83.01105323 150.37912821 73.87308821 154.19827068 64.74072266 158.03594971 C62.00887441 159.1837713 59.27605974 160.3292621 56.54296875 161.47412109 C49.05534245 164.61180842 41.56999809 167.75441529 34.09741211 170.92778015 C31.36223489 172.08770692 28.62411549 173.24055814 25.88525391 174.39175415 C24.04947809 175.16661582 22.21802809 175.95170106 20.38671875 176.73706055 C19.31035156 177.18863525 18.23398437 177.64020996 17.125 178.10546875 C16.19945312 178.49887451 15.27390625 178.89228027 14.3203125 179.29760742 C12 180 12 180 9 179 C7.85140372 176.71499414 6.87813737 174.49466645 5.9375 172.125 C-0.90373694 155.82692215 -9.34359143 141.0978982 -20 127 C-20.70253906 126.05253906 -21.40507813 125.10507812 -22.12890625 124.12890625 C-31.95220799 111.49894687 -43.99480133 99.34544427 -57 90 C-55.48277871 85.76607881 -53.33841703 82.09006041 -50.9375 78.3125 C-50.29808472 77.29784668 -50.29808472 77.29784668 -49.64575195 76.26269531 C-43.2382363 66.14988216 -36.63270867 56.16308012 -30.06591797 46.15332031 C-27.1162242 41.65104606 -24.18124596 37.13929944 -21.25 32.625 C-20.73743652 31.83585205 -20.22487305 31.0467041 -19.69677734 30.23364258 C-18.66736303 28.64851376 -17.6380661 27.06330871 -16.60888672 25.47802734 C-13.67794151 20.96374906 -10.74524673 16.45060802 -7.8125 11.9375 C-6.98250488 10.65963623 -6.98250488 10.65963623 -6.13574219 9.35595703 C-5.36665527 8.17235596 -5.36665527 8.17235596 -4.58203125 6.96484375 C-4.13061768 6.2699585 -3.6792041 5.57507324 -3.21411133 4.85913086 C-2.15226601 3.23316021 -1.07721807 1.61582711 0 0 Z " fill="#568039" transform="translate(669,177)"/>
<path d="M0 0 C9.76395676 0.61864452 19.41499423 1.77076455 29.09985352 3.1171875 C30.67157115 3.33278283 32.24333463 3.54804408 33.81513977 3.76300049 C38.04226818 4.34210122 42.26872351 4.92597962 46.49504972 5.5109024 C50.93173097 6.12421788 55.36897221 6.73345683 59.80613708 7.34326172 C67.2445798 8.36615857 74.6826018 9.39206982 82.12036133 10.41992188 C90.71729561 11.60793775 99.31481288 12.79165745 107.91266686 13.97299767 C116.20126014 15.11190169 124.4895055 16.25331706 132.77757072 17.39605713 C136.29930697 17.88161197 139.82115057 18.36637713 143.34308052 18.8505249 C147.48272422 19.41974006 151.62205472 19.99118129 155.76115227 20.56435394 C157.280019 20.77433296 158.79898943 20.98356343 160.31806946 21.19199371 C162.38974872 21.47637704 164.46103454 21.76347181 166.53224182 22.05126953 C167.69156503 22.21128448 168.85088823 22.37129944 170.04534245 22.53616333 C172.42017376 22.90897603 174.68586094 23.36090147 177 24 C175.44080236 28.39320111 173.15846886 32.19826328 170.671875 36.11328125 C170.23445984 36.80714432 169.79704468 37.50100739 169.34637451 38.21589661 C163.79578256 46.97066301 158.02016138 55.57670346 152.25 64.1875 C151.09823641 65.91008143 149.94670813 67.63282022 148.79541016 69.35571289 C146.5492971 72.71640837 144.30205682 76.0763448 142.05371094 79.43554688 C138.15301862 85.2643484 134.26325719 91.100398 130.375 96.9375 C129.29954971 98.55082828 128.22403866 100.16411605 127.1484375 101.77734375 C126.08496094 103.37255859 126.08496094 103.37255859 125 105 C121.16686496 104.40569887 118.28608853 103.27609734 114.89453125 101.41015625 C113.92064453 100.87841797 112.94675781 100.34667969 111.94335938 99.79882812 C110.91017578 99.22583984 109.87699219 98.65285156 108.8125 98.0625 C107.73677734 97.47275391 106.66105469 96.88300781 105.55273438 96.27539062 C102.36416914 94.52461983 99.18099645 92.76447905 96 91 C95.17677246 90.54351074 94.35354492 90.08702148 93.50537109 89.61669922 C90.63477538 88.02303444 87.76524077 86.42752471 84.89892578 84.82617188 C77.32526336 80.60203654 69.69229066 76.48772417 62.05664062 72.37695312 C61.08275391 71.85166016 60.10886719 71.32636719 59.10546875 70.78515625 C58.24074951 70.31988525 57.37603027 69.85461426 56.48510742 69.37524414 C55.25497925 68.69449829 55.25497925 68.69449829 54 68 C52.69675781 67.28130737 52.69675781 67.28130737 51.3671875 66.5480957 C49.01639356 65.01072107 47.67917481 63.68502281 46.01953125 61.4453125 C45.50044189 60.75469727 44.98135254 60.06408203 44.4465332 59.35253906 C43.90730225 58.61745117 43.36807129 57.88236328 42.8125 57.125 C41.65646542 55.5805679 40.50021337 54.03629855 39.34375 52.4921875 C38.7765625 51.72874023 38.209375 50.96529297 37.625 50.17871094 C35.38639475 47.17731171 33.10305625 44.2118152 30.8125 41.25 C30.01070313 40.2084375 29.20890625 39.166875 28.3828125 38.09375 C27.59648437 37.0728125 26.81015625 36.051875 26 35 C23.1386635 31.28495327 20.27933504 27.56838711 17.42285156 23.84960938 C15.813146 21.75710262 14.1993577 19.66776873 12.5859375 17.578125 C11.41134272 16.05217232 10.23686244 14.5261315 9.0625 13 C8.50651123 12.28166992 7.95052246 11.56333984 7.37768555 10.82324219 C6.85215088 10.13907227 6.32661621 9.45490234 5.78515625 8.75 C5.31988525 8.14671875 4.85461426 7.5434375 4.37524414 6.921875 C2.77799838 4.68975737 1.4015328 2.35882064 0 0 Z " fill="#568039" transform="translate(462,138)"/>
<path d="M0 0 C19.61034988 3.07302185 39.21609887 6.17471171 58.81063843 9.34713745 C60.7273486 9.65718544 62.64419859 9.96637034 64.56118774 10.27468872 C67.25343997 10.70798892 69.94514308 11.14455074 72.63671875 11.58203125 C73.4412851 11.71095764 74.24585144 11.83988403 75.07479858 11.97271729 C78.14956352 12.47556593 81.03857341 13.0128578 84 14 C82.60151509 17.13031446 80.94379451 19.34860032 78.5859375 21.828125 C77.90660156 22.54613281 77.22726562 23.26414062 76.52734375 24.00390625 C75.81707031 24.74511719 75.10679687 25.48632812 74.375 26.25 C73.68792969 26.97574219 73.00085938 27.70148437 72.29296875 28.44921875 C68.19111014 32.76655962 64.02088891 37.00545468 59.77905273 41.18530273 C57.99971484 43.00029088 56.33509107 44.87780084 54.6875 46.8125 C51.77749549 50.20195605 48.67840058 53.36451453 45.5 56.5 C42.38420131 59.57389855 39.34122722 62.66702191 36.5 66 C33.2169922 69.85122069 29.64595488 73.3828886 26.046875 76.93359375 C23.41976442 79.53905232 20.90006916 82.18453425 18.5 85 C15.2169922 88.85122069 11.64595488 92.3828886 8.046875 95.93359375 C4.82278589 99.1311107 1.8250115 102.44455172 -1.1171875 105.8984375 C-4.40523888 109.56850314 -7.96560354 112.97464876 -11.47265625 116.43359375 C-13.46529127 118.45702683 -15.29635191 120.4706435 -17.0625 122.6875 C-17.701875 123.450625 -18.34125 124.21375 -19 125 C-19.66 125 -20.32 125 -21 125 C-28.00715161 106.62058595 -22.48360507 86.3042891 -15.328125 68.89453125 C-6.23431965 46.67480943 -2.33746072 23.77247289 0 0 Z " fill="#568039" transform="translate(702,533)"/>
</svg>
